<svg xmlns="http://www.w3.org/2000/svg" version="1.1" viewBox="0 0 191.01 492.39" style="fill: rgb(0, 0, 0);" original_string_length="945">
 <g id="__id0_sjiassvmf">
  <g id="__id1_sjiassvmf"><path d="m187.15 488.75l-92.377-40.76-91.023 40.76v-485h183.4v485" style="fill: rgb(173, 121, 91);"/></g>
  <g id="__id2_sjiassvmf"><path d="m189.05 485.51c-22.45-9.9-44.9-19.81-67.35-29.71-8.33-3.67-16.66-7.35-24.989-11.02-2.649-1.17-5.406 0.68-7.844 1.77-4.961 2.22-9.926 4.45-14.89 6.67-24.039 10.76-48.079 21.53-72.122 32.29 1.8833 1.08 3.7622 2.16 5.645 3.24v-89.7-188.66-166.93-39.71l-3.75 3.75h149.34 34.06l-3.75-3.75v89.703 188.66 166.93 39.71c0 4.84 7.5 4.84 7.5 0v-89.7-188.66-166.93-39.71c0-2.043-1.7-3.75-3.75-3.75h-149.34-34.06c-2.043 0-3.75 1.707-3.75 3.75v89.703 188.66 166.93 39.71c0 3.07 3.1328 4.36 5.6445 3.24 30.34-13.59 60.68-27.17 91.02-40.76h-3.785c30.791 13.59 61.591 27.17 92.381 40.76 4.38 1.93 8.2-4.53 3.79-6.48" style="fill: rgb(173, 121, 91);"/></g>
 </g>
</svg>